<?xml version="1.0" encoding="UTF-8" standalone="no"?>
<!-- Generator: Adobe Illustrator 16.0.3, SVG Export Plug-In . SVG Version: 6.00 Build 0)  -->

<svg
   xmlns:dc="../../purl.org/dc/elements/1.1/default.htm"
   xmlns:cc="../../creativecommons.org/ns#"
   xmlns:rdf="http://www.w3.org/1999/02/22-rdf-syntax-ns#"
   xmlns:svg="http://www.w3.org/2000/svg"
   xmlns="http://www.w3.org/2000/svg"
   xmlns:sodipodi="../../sodipodi.sourceforge.net/DTD/sodipodi-0.dtd"
   xmlns:inkscape="../../www.inkscape.org/namespaces/inkscape"
   version="1.1"
   id="Layer_1"
   x="0px"
   y="0px"
   width="185px"
   height="175px"
   viewBox="0 0 185 175"
   enable-background="enable-background:new 0 0 185 175;"
   xml:space="preserve"
   sodipodi:docname="logos_fix2.svg"
   inkscape:version="0.92.1 r15371"><metadata
     id="metadata157"><rdf:RDF><cc:Work
         rdf:about=""><dc:format>image/svg+xml</dc:format><dc:type
           rdf:resource="../../purl.org/dc/dcmitype/StillImage" /><dc:title></dc:title></cc:Work></rdf:RDF></metadata><defs
     id="defs155" /><sodipodi:namedview
     pagecolor="#ffffff"
     bordercolor="#666666"
     borderopacity="1"
     objecttolerance="10"
     gridtolerance="10"
     guidetolerance="10"
     inkscape:pageopacity="0"
     inkscape:pageshadow="2"
     inkscape:window-width="1043"
     inkscape:window-height="566"
     id="namedview153"
     showgrid="false"
     inkscape:zoom="3.814336"
     inkscape:cx="39.870885"
     inkscape:cy="80.671921"
     inkscape:window-x="0"
     inkscape:window-y="0"
     inkscape:window-maximized="0"
     inkscape:current-layer="Layer_1" /><style
     type="text/css"
     id="style2">
		.st0{fill:#DA322C;}
		.st1{fill:#E40887;}
		.st2{fill:#82B3DC;}
		.st3{fill:#FFFFFF;}
		.st4{fill:#B42025;}
		.st5{fill:#ffffff;}
		.st6{fill:#FE5000;}
		.st7{fill:#FF0003;}
</style>
	<g id="g54">
		<path id="path4" d="M163.5 14.4h-4.3v-1.1h2.1V9h-2.1V7.9h4.3V1.4h13.1v13.1h6.5V21h-19.6v-6.6h6.5V7.9h-6.5v6.5z" class="st0"/>
		<path id="polygon6" d="M143.8 21h-19.5v-6.5h6.5V7.9h-6.5V1.4h13.1v13h6.4z" class="st0"/>
		<path id="path8" d="M156.9 10.1h2.2v2.2h-2.2v2.2h-2.1v2.2h-2.2v-2.1h-2.2v-2.2h-2.1v-2.2h2.1V8h2.2V5.9h2.3V8h2.1c-.1.6-.1 2.1-.1 2.1zm-1.6 2.7V9.6h-3.2v3.2h3.2z" class="st0"/>
		<path id="path10" d="M143.8 7.9h4.4v1h-2.1v4.4h2.1v1.1h-4.4V7.9z" class="st0"/>
		<path id="polygon12" d="M150.5 1.4h6.4v4.2h-1V3.5h-4.4v2.1h-1z" class="st0"/>
		<path id="polygon14" d="M155.9 18.9v-2.2h1V21h-6.4v-4.3h1v2.2z" class="st0"/>
		<path id="path16" d="M147.1 24.3c.6 0 1.3-.1 1.9-.1.7.1 1.4.6 1.4 1.3v5.3h-.9V30v-3.9c0-1-.3-1.2-1.4-1.1v5.7h-.9c-.1-2-.1-4.1-.1-6.4z" class="st0"/>
		<path id="path18" d="M128.3 25.2v5.7h-.9v-6.5c.6 0 1.2-.1 1.8-.1.8 0 1.5.6 1.5 1.3.1 1.8 0 3.5 0 5.3h-.9v-.8-3.9c-.1-.9-.4-1.2-1.5-1z" class="st0"/>
		<path id="path20" d="M174.6 30.9h-.9v-1.8-3c0-.9-.4-1.2-1.4-.9v5.7h-.9v-6.5c.7-.2 1.4-.3 2.2-.1.6.2 1.1.6 1.1 1.3-.1 1.8-.1 3.5-.1 5.3z" class="st0"/>
		<path id="path22" d="M154.9 26.9v-.4c0-1.3 0-1.4-1.3-1.4h-.7c-.2-.4-.1-.6.3-.6.5-.1.9-.2 1.4-.1.9.1 1.2.4 1.3 1.3V31c-1 .2-2 .5-2.9-.3-.8-.7-.6-1.7-.4-2.6.3-1.1 1.4-1.1 2.3-1.2zm0 .9c-.5 0-1.1-.1-1.3.4-.3.6-.3 1.2 0 1.7s.8.4 1.3.3v-2.4z" class="st0"/>
		<path id="path24" d="M179.1 26.9v-1.2c0-.4-.2-.6-.6-.6h-1.4c-.1-.4-.1-.6.2-.7.6-.1 1.3-.1 1.9-.1.4 0 .6.3.7.7 0 .1.1.3.1.4v5.4c-1 .2-1.9.5-2.8-.2-.8-.6-.7-1.6-.5-2.4.3-1.2 1.4-1.2 2.4-1.3zm0 1c-.5-.2-1-.1-1.3.3-.3.3-.2 1.4 0 1.8.2.3.6.4 1.3.2v-2.3z" class="st0"/>
		<path id="path26" d="M165.7 27.7V26c0-1 .7-1.7 1.7-1.7.9 0 1.7.7 1.7 1.7v3.5c0 1-.8 1.7-1.8 1.7s-1.6-.7-1.6-1.7v-1.8zm.9-.1c.1 0 .1 0 0 0v1.9c0 .4.3.6.7.6.4 0 .6-.3.7-.6v-.3-3.3c0-.5-.3-.9-.7-.9-.4 0-.7.3-.8.9.1.6.1 1.2.1 1.7z" class="st0"/>
		<path id="path28" d="M140.6 28.2h-2.3c0 .2-.1.3-.1.3 0 1.4 0 1.8 1.6 1.7.3 0 .7-.2.7.3 0 .4-.4.4-.7.4-.4.1-.8.1-1.2.1-.8-.1-1.4-.7-1.4-1.6v-3.5c0-1 .8-1.7 1.7-1.6 1 0 1.6.7 1.6 1.7.1.7.1 1.4.1 2.2zm-2.3-.9h1.4v-1.6c0-.4-.4-.7-.7-.7-.4 0-.6.3-.7.7-.1.6 0 1.1 0 1.6z" class="st0"/>
		<path id="path30" d="M158.1 23h.9c0 .5.1.9.1 1.3.5 0 .9 0 1.4.1 0 .2 0 .5.1.8-.5 0-.9.1-1.4.1 0 .2-.1.4-.1.5v3.4c0 .9.1 1 1 1h.5c.2.3.1.5-.2.6-1.2.6-2.2 0-2.3-1.4v-4.2V23z" class="st0"/>
		<path id="path32" d="M133 23h.9c0 .4.1.9.1 1.3.5 0 1 .1 1.5.1v.8c-.5 0-.9.1-1.4.1 0 .2-.1.3-.1.5v3.6c0 .8.1.8.8.9h.9c-.2.3-.2.6-.4.6-1.1.7-2.3 0-2.3-1.3v-6.1c-.1-.2 0-.3 0-.5z" class="st0"/>
		<path id="path34" d="M143.7 30.9h-.9c0-.2-.1-.3-.1-.5v-5.2c0-.5.2-.7.6-.8l1.8-.3v.9c-.5 0-.9.1-1.5.1.1 2 .1 3.9.1 5.8z" class="st0"/>
		<path id="path36" d="M183.2 31c-.7-.1-.8-.3-.9-.9v-2.8V23h.9v8z" class="st0"/>
		<path id="path38" d="M125 30.9h-.9v-6.5h.9v6.5z" class="st0"/>
		<path id="path40" d="M163.5 30.9h-.9v-6.5h.9v6.5z" class="st0"/>
		<path id="path42" d="M158.1 17.7v-2.1h2.1v2.1h-2.1z" class="st0"/>
		<path id="rect44" d="M158.1 4.6h2.1v2.1h-2.1z" class="st0"/>
		<path id="path46" d="M149.2 17.7h-2v-2.1h2v2.1z" class="st0"/>
		<path id="path48" d="M147.2 6.7V4.6h2v2.1h-2z" class="st0"/>
		<path id="path50" d="M163.5 23c0 .7 0 .7-.8.8V23h.8z" class="st0"/>
		<path id="path52" d="M125 23c.1.7.1.7-.8.8V23h.8z" class="st0"/>
	</g>
	<g id="g68">
		<path id="path56" d="M158.2 67.4c.6-1.6 3.8-11.7 7-14.9 3.3-3.3 5.1-2 5.1-2s.2-1.4-1.2-2.5c-1.8-1.4-4.1-.6-5.9 1-.8.8-2.1 2.9-3.1 5.2-1.4 3.3-2.8 6.8-3.3 7.4-.6.8-2 1-1.4-1.1.7-2.2 1.2-3 1.6-3.9.9-2.4.3-3.3.1-3.6-.3-.6-.9-.9-1.5-1.1-1.3-.3-2.4 0-2.4 0 .5 1.3 1.1 2.1-.5 6.6-.1.2-.1.4-.2.6-.3.8-1.1 2.4-1.7 3-.7.7-1.5 1.4-2.4 1.7-.8.3-2.9.2-1.9-1.8.4-.7 1.3-1.5 2.5-2.3 2.1-1.4 2.9-3.1 2.8-4.5-.1-1.1-.6-2.4-2.4-3.1-1.4-.5-3.4.1-4.2 1-1 1.1-1 2-.9 3 0 0 .8-1 1.9-1.4.5-.2 1-.2 1.4-.1.7.2 1 1 .5 1.7-1.1 1.8-3.2 2.6-4.1 3.4-.4.4-.8.8-1.1 1.2-1.2 1.5-1.9 2.7-2.9 3.3-.7.4-1.3.2-1.3-.4 0-.6.6-2.1 1.3-3.5.5-.9 1.8-3 2.2-3.8.6-1 1-2.3 0-3.1-1.8-1.6-3.9-.3-3.9-.3.1 1.3-.5 2.7-1.8 5.1-1.2 2.4-2.7 6.9.2 7.8 1.2.4 2.5.2 3.5-.5.7-.4 1.5-1.3 2.2-2.2.2.8.8 1.6 2 2 3.9.6 6.5-1.4 7.8-3.2.6 2.9 4.1 2.5 4.1 2.5s-.3 1.3-.8 1.9c-7-1.6-19.2 0-25.2 4.3-1.2.9-2.2 1.9-2.8 3-.2.3-1.1 1.6-.9 3.5.1 1.9 1.3 3.2 1.9 3.6 2.7 2.1 8.4 2.7 13.5 1.6 8.9-2 13.5-9.8 14.4-11.2 9.4 3.9 4.8 10.6 3.9 11.3 2 .5 7.5-1.6 7-6.9-.3-5.1-7.4-7.8-9.1-8.3zm-7.1 7.3c-1 1.2-2.9 3.1-7.5 4.9-1.7.7-3.6 1.2-5.7 1.3-1.5 0-3.7.3-6.9-1.2-.7-.3-1.3-.9-1.6-1.9-.3-1.2.8-2.8 4-4.7 4-2.4 7.7-2.9 10.9-3.2 5.9-.6 9.9.8 9.9.8-1.2 1.9-2.2 2.9-3.1 4z" class="st1"/>
		<path id="path58" d="M181.6 50.9c-1.8-1.6-3.9-.3-3.9-.3.1 1.3-.5 2.7-1.8 5.1-.9 1.7-1.9 4.6-1.4 6.3.6 2 3.2 1.7 3.7 1.6 1.3-.2 1.8-1.1 1.7-1.9-.9.7-1.3.7-1.6.4-.2-.2-.7-.6-.1-1.9.3-.7.7-1.6 1.1-2.4.5-.9 1.8-3 2.2-3.8.6-1 1-2.2.1-3.1z" class="st1"/>
		<path id="path60" d="M135.4 58.4c.5-1.7.7-3.4.6-4.9-.1-1.4-.4-2.2-.8-3-.6-1-1.3-1.8-3-2.4-3.9-1.5-5.6-1.2-7.1-1.9s-1.2-1.9-.3-2.3c.8-.3 1.8-.2 2.4-.2 1.2.1 2.6.5 4.1 1 1.7.6 3.4 1.3 6.4 2.1 6 1.7 13.2-3.2 8.9-8.6-.8 1.5-5.4 5.7-14.8 2.9-5-1.5-9.1.1-10.1 2.1-.5 1-.3 3 1.4 4.3.9.6 2.1.9 3.4 1.3.6.2 2.3.6 3.1.8.9.2 1.9.6 2.7 1.3.9.7 1.2 1.5 1.4 2.1.2.7.3 2.3.2 2.7-.1 3.3-2.4 6.5-4.9 7.9-1.5.8-1.9-.3-1.6-1.9.4-1.8 1.4-4 2.4-4.8 1.8-1.6 2.7.2 2.7.2.7-.2 1.3-3.7-2.6-2.8-4.5 1.1-10 11-4.3 12.9 4.4 1.6 8.3-3.4 9.8-8.8z" class="st1"/>
		<path id="path62" d="M175.9 47.4c-.3-1.5-.9-3.1-1.7-4.5.9-.4 1.9-.7 3.4-.8 2.3-.1 3.9 1.4 3.9 1.4s2.6-1.5.4-4.2c-2.4-2.6-7-.8-10.1.8-3.4-3.4-8.6-5.4-14.7-3.5-2.8.8-5.6 2.4-7.1 4.8-.5.8-.8 2.1-.6 3.6.5 3.1 4.1 4 7.6 3.7 1-.1 3.4-.6 6-1.6 3.2-1.2 6.6-2.9 8.4-3.4 1.5 1.4 2.7 3.9 2.5 6.5-.3 4.4-4 8.5-4.5 9.2-.5.6-1.2 1.1-1.3 1.2-2.1 1.3-1.4-4.2.7-6.3 1.7-1.7 2.9-.4 2.9-.4.9-1.1.3-3.5-3.8-1.7-2.9 1.3-4.8 4.8-5.2 7.6-.3 2.5.4 4.8 2.1 5.1 3.3.7 6.7-3.7 7.9-5.6 1.9-2.8 4.3-6.4 3.2-11.9zm-20.4-1.7c-1.5-1.6-.3-3.6.8-4.3 1.4-1 3.4-1.5 4.5-1.6 2.6-.2 6.3.4 8.2 1.9-2.9 1.8-11.1 6.5-13.5 4z" class="st1"/>
		<circle id="circle64" cx="141.8" cy="50.2" r="2.2" class="st1"/>
		<circle id="circle66" cx="181.3" cy="47.5" r="2.2" class="st1"/>
	</g>
	<g id="g100">
		<g id="g84">
			<path id="path70" d="M38.6 128.3c0 1.5-1 2.7-3 2.7s-3-1.2-3-2.7v-3.9h1.8v3.4c0 1.2.4 1.5 1.2 1.5.8 0 1.2-.4 1.2-1.5v-3.4h1.8v3.9z" class="st2"/>
			<path id="path72" d="M45.9 130.9h-2.5l-1.6-1.9-.4.4v1.4h-1.8v-6.5h1.8v2.5l2.1-2.5h2.2l-2.8 3.2 3 3.4z" class="st2"/>
			<path id="path74" d="M49.1 129.5c-.1 0-.1 0 0 0h-.9v1.4h-1.9v-6.5h3.1c2 0 2.7 1.2 2.7 2.5 0 1.1-.4 1.8-1.2 2.3l1.4 1.7h-2.2l-1-1.4zm-.9-1.5h.7c.9 0 1.2-.5 1.2-1s-.3-1.1-1-1.1h-.9v2.1z" class="st2"/>
			<path id="path76" d="M57.4 129.9H55l-.5 1h-2l3.2-6.5h.9l3.2 6.5h-2l-.4-1zm-1.7-1.5h1.1l-.6-1.3-.5 1.3z" class="st2"/>
			<path id="path78" d="M62.2 130.9h-1.9v-6.5h1.9v6.5z" class="st2"/>
			<path id="path80" d="M69.4 124.4v6.5h-.9l-3.3-3.2v3.2h-1.9v-6.5h.9l3.3 3.2v-3.2h1.9z" class="st2"/>
			<path id="path82" d="M75.6 129.4v1.5h-5.3v-6.5h5.1v1.5h-3.2v1.1h2.7v1.5h-2.7v.9h3.4z" class="st2"/>
		</g>
		<g id="g96">
			<path id="path86" d="M38.2 134.7h-1.9v4.9h-1.9v-4.9h-1.9v-1.5h5.7v1.5z" class="st2"/>
			<path id="path88" d="M45.1 136.4c0 1.8-1.5 3.3-3.5 3.3-1.9 0-3.5-1.5-3.5-3.3 0-1.8 1.5-3.3 3.5-3.3s3.5 1.5 3.5 3.3zm-1.9 0c0-.9-.7-1.6-1.5-1.6s-1.5.7-1.5 1.6c0 .9.7 1.6 1.5 1.6.8.1 1.5-.7 1.5-1.6z" class="st2"/>
			<path id="path90" d="M48.9 139.6h-3.1v-6.5h2.9c1.8 0 3.3 1.4 3.3 3.2 0 1.8-1.4 3.3-3.1 3.3zm-.1-1.6c.8 0 1.4-.7 1.4-1.6 0-.9-.6-1.6-1.4-1.6h-1.1v3.2h1.1z" class="st2"/>
			<path id="path92" d="M56.4 138.6H54l-.4 1h-2l3.2-6.5h.9l3.2 6.5h-2l-.5-1zm-1.8-1.5h1.1l-.5-1.3-.6 1.3z" class="st2"/>
			<path id="path94" d="M63.9 133.2l-2.4 4.3v2.2h-1.9v-2.2l-2.4-4.3h2.1l1.2 2.4 1.2-2.4h2.2z" class="st2"/>
		</g>
		<path id="path98" d="M17.9 114.9c-6.8 0-12.4 5.5-12.4 12.4 0 6.8 5.5 12.4 12.4 12.4h12.4v-12.4c0-6.9-5.5-12.4-12.4-12.4zm.2 15.6c0 2.3-1.6 4.2-4.7 4.2s-4.7-1.9-4.7-4.2v-6.1h2.9v5.3c0 1.8.6 2.4 1.9 2.4 1.3 0 1.9-.6 1.9-2.4v-5.3h2.9l-.2 6.1zm10.2-3.6h-3v7.8h-3v-7.8h-3v-2.4h9v2.4z" class="st2"/>
	</g>
	<g id="g118">
		<path id="polygon102" d="M141.3 102.8v12.4h-3v-9.5h-3.2v9.5h-3v-12.4z" class="st3"/>
		<path id="polygon104" d="M141.3 88.4v12.5h-3v-9.5h-3.2v9.5h-3V88.4z" class="st3"/>
		<path id="polygon106" d="M149 96l-1-2.5-.9 2.4-1.8 5h-3.2l4.8-12.5h2.2l5 12.5h-3.3z" class="st3"/>
		<path id="path108" d="M181.1 95.8c-.5 1.3-1.6 2.1-3 2.1-1.8 0-3.2-1.5-3.2-3.3 0-1.8 1.4-3.3 3.2-3.3 1.4 0 2.5.9 3 2.1h3c-.5-2.9-3-5-6-5-3.4 0-6.1 2.8-6.1 6.2 0 3.4 2.7 6.2 6.1 6.2 3 0 5.5-2.2 6-5.1l-3 .1z" class="st3"/>
		<path id="path110" d="M165 97.8c-1.8 0-3.2-1.5-3.2-3.3 0-1.8 1.4-3.3 3.2-3.3s3.2 1.5 3.2 3.3c.1 1.9-1.4 3.3-3.2 3.3m0-9.4c-2.8 0-5.2 2-5.9 4.6h-1.2v-4.6h-3v12.4h3V96h1.2c.6 2.7 3 4.8 5.9 4.8 3.4 0 6.1-2.8 6.1-6.2 0-3.4-2.7-6.2-6.1-6.2" class="st3"/>
		<path id="polygon112" d="M149 110.3l-1-2.5-.9 2.5-1.8 4.9h-3.2l4.8-12.5h2.2l5 12.5h-3.3z" class="st3"/>
		<path id="path114" d="M181.1 110.1c-.5 1.3-1.6 2.1-3 2.1-1.8 0-3.2-1.5-3.2-3.3 0-1.8 1.4-3.3 3.2-3.3 1.4 0 2.5.9 3 2.1h3c-.5-2.9-3-5-6-5-3.4 0-6.1 2.8-6.1 6.2 0 3.4 2.7 6.2 6.1 6.2 3 0 5.5-2.2 6-5.1l-3 .1z" class="st3"/>
		<path id="path116" d="M165 112.2c-1.8 0-3.2-1.5-3.2-3.3s1.4-3.3 3.2-3.3 3.2 1.5 3.2 3.3c.1 1.8-1.4 3.3-3.2 3.3m0-9.5c-2.8 0-5.2 2-5.9 4.6h-1.2v-4.6h-3v12.4h3v-4.8h1.2c.6 2.7 3 4.8 5.9 4.8 3.4 0 6.1-2.8 6.1-6.2 0-3.4-2.7-6.2-6.1-6.2" class="st3"/>
	</g>
	<g id="g126">
		<path id="path124" d="M68.4 2.4c-.4-.4-.9-.7-1.6-.7h-3.7c-.7 0-.9.3-1.3.6-.4.4-.7.6-.7 1.4v6.5s-.2.8-.5.8h-2.7c-.4 0-.5-.3-.5-.8V3.7c0-.8-.4-1-.7-1.4-.5-.3-1-.6-1.7-.6h-3.8c-.7 0-.9.3-1.3.7-.4.4-.7.6-.7 1.4v22.9c0 .8.3 1 .7 1.4.4.4.6.7 1.3.7H55c.7 0 1.2-.3 1.6-.7.4-.4.7-.6.7-1.4v-6.8c0-.6.1-.8.5-.8h2.7c.3 0 .5.1.5.8v6.8c0 .8.4 1.1.7 1.4.4.4.6.7 1.3.7h3.7c.7 0 1.2-.3 1.6-.7.4-.4.7-.6.7-1.4V3.8c.1-.8-.3-1.1-.6-1.4zM68 26.8c0 .7-.6.9-1.2.9h-3.7c-.7 0-.9-.3-.9-.9v-8s-.1-.7-.6-.7h-4.8c-.5 0-.6.7-.6.7v8c0 .7-.6.9-1.2.9h-3.8c-.7 0-.9-.3-.9-.9v-23c0-.7.3-.9.9-.9H55c.7 0 1.2.3 1.2.9v7.8c0 .4.2.7.6.7h4.8c.5 0 .6-.2.6-.7V3.8c0-.7.3-.9.9-.9h3.7c.7 0 1.2.3 1.2.9v23zM66.1 3.7h-2.4c-.3 0-.6.2-.6.5v8.3c0 .5 0 .8-.5.8h-6.7c-.4 0-.7-.4-.7-.8V4.3c0-.4-.2-.6-.5-.6H52c-.5 0-.8.3-.8.6v21.9c0 .4.2.7.8.7h2.6s.6-.1.6-.7v-8.4c0-.4.3-.8.7-.8h6.7c.5 0 .5.4.5.8v8.4c0 .5.6.7.6.7h2.8c.5 0 .7-.2.7-.7V4.3c-.1-.4-.4-.6-1.1-.6zM20.2 1.9H4.3c-.7 0-1.2.4-1.6.8C2.3 3 2 3.2 2 4v3.1c0 .5.2.6.4 1 .4.6.9.7 1.1.8.3.1.5.1.7.1h3c.3 0 .5.1.5.6v17.2c0 .8.3 1.1.7 1.5.4.4.9.7 1.6.7h4c.7 0 .9-.3 1.3-.7.4-.4.7-.7.7-1.5V9.6s0-.7.5-.7h3.2c.2 0 .4 0 .9-.2.2-.1.5-.3.8-.7.3-.4.5-.5.5-1l.1-3c0-.8-.3-1.1-.7-1.5-.3-.4-.4-.6-1.1-.6zm.7 5.3c0 .2-.1.5-.3.7-.2.2-.3-.1-.7-.1h-4.2c-.6 0-.7.5-.7.8v18.3c0 .7-.3.9-.9.9h-4c-.6 0-1.1-.3-1.2-.9C9 26.9 9 9 9 8.6c0-.4-.3-.8-.8-.8H4.3c-.4 0-.7.3-.9.1-.2-.2-.3-.4-.3-.7V3.8c0-.6.6-.8 1.2-.8h15.9c.6 0 .7.1.7.8v3.4zm-1.4-3.3H5.1c-.4 0-.6.3-.6.5v2.2c-.1.2.1.4.3.4h4.8c.3 0 .7.4.7.8v18.6s.2.5.3.5h3c.2 0 .4-.1.4-.5V7.7c0-.4.4-.7.8-.7h4.8c.3 0 .4-.3.4-.7v-2c0-.3-.1-.4-.5-.4zM34.6.8c-3.1 0-5.9 1.2-7.7 2.9-1.9 1.8-3 4-3 7v9.1c0 2.6 1.4 5.6 2.9 7.1 1.8 1.7 4.5 3 7.7 3 5.5 0 10.8-2.4 10.8-9.3v-.3c0-.8-.1-1.5-.4-1.9-.4-.4-.6-.6-1.4-.6h-4.1c-.9 0-1.8.3-1.9 1.8 0 .8-.7 1.7-2.7 1.7-2.2 0-2.3-1.7-2.3-2.2v-7.6c0-.4.2-2.2 2.3-2.2 2.1 0 2.7.9 2.7 1.7.1 1.5 1 1.8 1.9 1.8h4.1c.7 0 1-.2 1.4-.6.4-.4.4-1 .4-1.9V10c0-8.2-7.9-9.2-10.7-9.2zm8.8 11h-3.5s-1.3-.1-1.4-1.2C38.3 8.5 36.4 8 34.9 8c-3.4 0-3.7 2.4-3.7 3.2v8.1c0 .8.3 3.2 3.7 3.2 1.2 0 3.4-.3 3.6-2.6.1-1.1.7-1.2 1.4-1.2h3.5c.6 0 .7.5.7 1.6 0 5.2-4.1 8.1-9.5 8.1s-9.5-4-9.5-9.2V11c0-5.2 4-9.1 9.4-9.1s9.6 2.9 9.6 8.1c0 1.3-.1 1.8-.7 1.8zm-8.9-8.4c-4.8 0-8.5 3.7-8.5 7.8v8.2c0 4.1 3.8 8 8.6 8 4 0 8.1-2.1 8.4-6.6 0-.4-.2-.8-.5-.8h-2.1c-.4 0-.8.1-.8.5-.4 2.3-2.1 3.5-4.9 3.5-2.9 0-4.8-2.2-4.8-4.7v-8.2c0-2.4 1.9-4.7 4.8-4.7s4.4 1 4.9 3.5c.1.4.4.5.8.5h2.1c.3 0 .5-.3.5-.8-.2-4.3-4.4-6.2-8.5-6.2z" class="st4"/>
	</g>
	<g id="g134" fill="#ffffff">
		<path id="path128" d="M19.5 50h-3.2v9h-2.7v-9h-3.2v-2.3h9.2l-.1 2.3zm6.8 3.4c0-6.3-5.1-11.4-11.4-11.4-6.3 0-11.4 5.1-11.4 11.4 0 6.3 5.1 11.4 11.4 11.4s11.4-5.2 11.4-11.4" class="st5"/>
		<path id="path130" d="M67.6 50h-3.2v9h-2.7v-9h-3.2v-2.3h9.2l-.1 2.3zm6.7 3.4c0-6.3-5-11.4-11.3-11.4-6.3 0-11.4 5.1-11.4 11.4 0 6.3 5.1 11.4 11.4 11.4s11.3-5.2 11.3-11.4" class="st5"/>
		<path id="path132" d="M35 54l7-3.4c-.7-.8-1.8-1.3-2.9-1.3-2.2 0-4.1 1.8-4.1 4.1v.6m10.3-2.3l-9.2 4.5c.7.8 1.8 1.3 2.9 1.3 1.3 0 2.5-.6 3.2-1.6l2.5.5c-1.1 2.1-3.2 3.5-5.7 3.5-3.6 0-6.5-2.9-6.5-6.5s2.9-6.5 6.5-6.5c3 0 5.5 2 6.3 4.8m5 1.7c0-6.3-5.1-11.4-11.4-11.4s-11.4 5.1-11.4 11.4 5.1 11.4 11.4 11.4 11.4-5.2 11.4-11.4" class="st5"/>
	</g>
	<g id="g138">
		<path id="path136" d="M148.6 167.9c0 .5.4.8.9.8h2.4c.5 0 .9-.4.9-.8v-13.1l-4.2 8.1v5zm-2.1-36.2h8.2v-1.1h-8.2v1.1zm6.7-4h-5.1c-.8 0-1.5.7-1.5 1.5v.6h8.2v-.6c-.1-.8-.8-1.5-1.6-1.5zm-6.7 6h8.2v-1.1h-8.2v1.1zm0 1.4c0 .8.7 1.5 1.5 1.5h5.1c.8 0 1.5-.7 1.5-1.5v-.6h-8.2l.1.6zm21.5 5h-7.2c-2.2 0-4.2 1.8-4.2 4.1v23.6c0 .4.3.8.8.8h2.5c.6 0 .9-.5.9-.8v-11.1h3.9v11c0 .3.3.8.8.8h2.6s.8 0 .8-1V141c0-.1-.1-.9-.9-.9zm-3.3 13.5h-3.9v-9.4h3.9v9.4zM151.9 140h-2.4c-.5 0-.9.4-.9.8V156l4.2-8.1v-7c-.1-.5-.5-.9-.9-.9zm-8.1 0h-2.4c-.5 0-.9.4-.9.8v11.7h-3.9v-11.7c0-.5-.4-.8-.9-.8h-2.4c-.5 0-.9.4-.9.8v26.9c0 .5.4.8.9.8h2.4c.5 0 .9-.4.9-.8v-12h3.9v12c0 .5.4.8.9.8h2.4c.5 0 .9-.4.9-.8v-26.9c-.1-.4-.4-.8-.9-.8zm39 0h-2.4c-.5 0-.9.4-.9.8v11.7h-3.9v-11.7c0-.5-.4-.8-.9-.8h-2.4c-.5 0-.9.4-.9.8v26.9c0 .5.4.8.9.8h2.4c.5 0 .9-.4.9-.8v-12h3.9v12c0 .5.4.8.9.8h2.4c.5 0 .9-.4.9-.8v-26.9c-.1-.4-.4-.8-.9-.8zm-53.8 0h-2.4c-.5 0-.9.4-.9.8v15.4h-3.9v-15.5c0-.5-.4-.8-.9-.8h-2.4c-.5 0-.8.4-.9.8v15.5c0 2.2 1.9 4.1 4.2 4.1h3.9v4.1h-4v-.8c0-.2-.1-.3-.1-.5 0-.1-.1-.1-.1-.2-.2-.1-.4-.2-.6-.2h-2.4c-.2 0-.4.1-.6.2-.1.1-.2.3-.3.5V164.6c0 .8.1 3.9 3.8 3.9h4.4c2.3 0 4.2-1.9 4.2-4.1v-23.6c-.1-.4-.5-.8-1-.8z" class="st3"/>
	</g>
	<path id="path148" d="M21.5 93.4c1.5-1.7 2.3-3.9 2.3-6.3 0-1.8-.5-3.4-1.3-4.8-1.7-2.9-4.8-4.9-8.5-4.9-5.4 0-9.8 4.4-9.8 9.8v.2h7.2v-.1c0-1.4 1.2-2.7 2.6-2.7s2.6 1.2 2.6 2.6c0 .7-.3 1.3-.7 1.8l-6.6 6.6-6.1 6.1h10.1c-.1-.1 7.8-7.9 8.2-8.3m23.7-6.2H38V80L23.6 94.4l-7.2 7.2h7.2v-7.2h7.2v7.2H38v-7.2h7.2v-7.2zm17.2 6.2c1.5-1.7 2.3-3.9 2.3-6.3 0-1.8-.5-3.4-1.3-4.8-1.7-2.9-4.8-4.9-8.5-4.9-5.4 0-9.8 4.4-9.8 9.8v.2h7.2v-.1c0-1.4 1.2-2.7 2.6-2.7 1.4 0 2.6 1.2 2.6 2.6 0 .7-.3 1.3-.7 1.8l-6.7 6.7-6.1 6.1h10.1c.2-.2 8.1-8 8.3-8.4m2.4 8.2v-7.2l-7.2 7.2h7.2z" class="st6"/>
	<path d="M50.7 160.2v8.8h2.6v-10.2l-2.6 1.4z" class="st3"/>
	<path d="M12.8 162.2v-3.4H6v3.4h3.4v3.4H6v3.4h10.3v-3.4h-3.5v-3.4zm20.5 3.4v-6.8h-6.8v3.4h3.4v3.4h-3.4v3.4h10.2v-3.4h-3.4zm-10.2-3.4v-3.4h-3.4v3.4h-3.4v3.4h3.4v3.4h3.4v-3.4h3.4v-3.4h-3.4z" class="st7"/>
	<path d="M64.6 163.9v-8.1H62v3.6c-.8-.5-1.7-.7-2.6-.7-2.9 0-5.2 2.3-5.2 5.2 0 2.9 2.3 5.2 5.2 5.2 1 0 1.9-.3 2.6-.7v.6h2.6v-5.1m-2.6 0c0 1.5-1.2 2.6-2.6 2.6-1.5 0-2.6-1.2-2.6-2.6 0-1.4 1.2-2.6 2.6-2.6 1.4-.1 2.6 1.1 2.6 2.6M43.2 169l-4.7-10.2h2.8l2.9 6.2 2.9-6.2h2.8L45.2 169h-2zm38.7-10.3c-2.9 0-5.2 2.3-5.2 5.2 0 2.9 2.3 5.2 5.2 5.2 2.9 0 5.2-2.3 5.2-5.2s-2.3-5.2-5.2-5.2m2.6 5.2c0 1.5-1.2 2.6-2.6 2.6-1.5 0-2.6-1.2-2.6-2.6 0-1.5 1.2-2.6 2.6-2.6 1.4-.1 2.6 1.1 2.6 2.6m-13.9-5.2c-2.9 0-5.2 2.3-5.2 5.2 0 2.9 2.3 5.2 5.2 5.2h.1c1.6 0 3.2-.4 4.5-1.8l-2.3-1.3c-1 .7-3.3 1.1-4.5-.6-.2-.2-.3-.4-.4-.7h7.6c0-.3.1-.6.1-.9.1-2.8-2.2-5.1-5.1-5.1m-2.5 4.3c.4-1 1.3-1.8 2.5-1.8s2.2.8 2.5 1.8h-5z" class="st3"/>
	<path d="M53.3 157.3l-2.6-1.5v3l2.6-1.5z" class="st7"/>


</svg>