<?xml version="1.0" encoding="UTF-8" standalone="no"?>
<svg width="67px" height="59px" viewBox="0 0 67 59" version="1.1" xmlns="http://www.w3.org/2000/svg" xmlns:xlink="http://www.w3.org/1999/xlink">
    <!-- Generator: Sketch 50.2 (55047) - http://www.bohemiancoding.com/sketch -->
    <title>plan1</title>
    <desc>Created with Sketch.</desc>
    <defs>
        <linearGradient x1="50%" y1="100%" x2="50%" y2="3.061617e-15%" id="linearGradient-1">
            <stop stop-color="#FFAA35" offset="0%"></stop>
            <stop stop-color="#ED9B61" offset="100%"></stop>
        </linearGradient>
    </defs>
    <g id="Welcome" stroke="none" stroke-width="1" fill="none" fill-rule="evenodd">
        <g id="Чистовое-оформление" transform="translate(-808.000000, -571.000000)" fill="url(#linearGradient-1)" fill-rule="nonzero">
            <g id="plan1" transform="translate(808.000000, 571.000000)">
                <path d="M65.4213362,58.6087435 L0.953663793,58.6087435 C0.426859914,58.6087435 0,58.1818836 0,57.6550797 L0,1.09060991 C0,0.563806034 0.426859914,0.136946121 0.953663793,0.136946121 L58.8113017,0.136946121 C59.3381056,0.136946121 59.7649655,0.563806034 59.7649655,1.09060991 L59.7649655,29.2912112 L65.4213362,29.2912112 C65.9481401,29.2912112 66.375,29.7180711 66.375,30.244875 L66.375,57.6550797 C66.375,58.1818836 65.9481401,58.6087435 65.4213362,58.6087435 Z M17.356681,56.7014159 L64.4676724,56.7014159 L64.4676724,31.1985388 L44.7455237,31.1985388 C44.2187198,31.1985388 43.7918599,30.7716789 43.7918599,30.244875 L43.7918599,28.4088815 L41.4374547,28.4088815 C40.9106509,28.4088815 40.4837909,27.9820216 40.4837909,27.4552177 C40.4837909,26.9284138 40.9106509,26.5015539 41.4374547,26.5015539 L43.7918599,26.5015539 L43.7918599,20.3344009 C43.7918599,19.807597 44.2187198,19.3807371 44.7455237,19.3807371 C45.2723276,19.3807371 45.6991875,19.807597 45.6991875,20.3344009 L45.6991875,29.2912112 L51.2415,29.2912112 L51.2415,2.04427371 L45.6991875,2.04427371 L45.6991875,9.01746336 C45.6991875,9.54426724 45.2723276,9.97112716 44.7455237,9.97112716 C44.2187198,9.97112716 43.7918599,9.54426724 43.7918599,9.01746336 L43.7918599,6.09276724 L28.8006466,6.09276724 C28.2738427,6.09276724 27.8469828,5.66590733 27.8469828,5.13910345 L27.8469828,2.04427371 L24.365347,2.04427371 L24.365347,6.47423276 C24.365347,7.00103664 23.9384871,7.42789655 23.4116832,7.42789655 C22.8848793,7.42789655 22.4580194,7.00103664 22.4580194,6.47423276 L22.4580194,2.04427371 L21.4257737,2.04427371 L21.4257737,4.5035819 C21.4257737,5.03038578 20.9989138,5.45724569 20.4721099,5.45724569 L20.1749483,5.45724569 C20.3454634,5.84672198 20.4404483,6.27701509 20.4404483,6.72867026 L20.4404483,9.20819612 C20.4404483,10.9610302 19.0145302,12.3869483 17.2616961,12.3869483 C15.5088621,12.3869483 14.082944,10.9610302 14.082944,9.20819612 L14.082944,6.72867026 C14.082944,6.27663362 14.1779289,5.84672198 14.348444,5.45724569 L14.0512823,5.45724569 C13.5244784,5.45724569 13.0976185,5.03038578 13.0976185,4.5035819 L13.0976185,2.04427371 L9.63200431,2.04427371 L9.63200431,14.6757414 C9.63200431,15.2025453 9.2051444,15.6294052 8.67834052,15.6294052 L7.43857759,15.6294052 L7.43857759,20.9844181 L22.4580194,20.9844181 L22.4580194,16.583069 C22.4580194,16.0562651 22.8848793,15.6294052 23.4116832,15.6294052 C23.9384871,15.6294052 24.365347,16.0562651 24.365347,16.583069 L24.365347,26.5011724 L26.7197522,26.5011724 C27.246556,26.5011724 27.6734159,26.9280323 27.6734159,27.4548362 C27.6734159,27.9816401 27.246556,28.4085 26.7197522,28.4085 L24.365347,28.4085 L24.365347,33.0814526 C24.365347,33.6082565 23.9384871,34.0351164 23.4116832,34.0351164 C22.8848793,34.0351164 22.4580194,33.6082565 22.4580194,33.0814526 L22.4580194,22.8917457 L8.83741164,22.8917457 L8.83741164,50.279444 L16.4030172,50.279444 C16.9298211,50.279444 17.356681,50.7063039 17.356681,51.2331078 L17.356681,56.7014159 Z M1.90732759,56.7014159 L15.4493534,56.7014159 L15.4493534,52.1867716 L7.88374784,52.1867716 C7.35694397,52.1867716 6.93008405,51.7599116 6.93008405,51.2331078 L6.93008405,34.6393578 L1.90732759,34.6393578 L1.90732759,56.7014159 Z M1.90732759,32.7320302 L6.93008405,32.7320302 L6.93008405,22.8917457 L1.90732759,22.8917457 L1.90732759,32.7320302 Z M56.4568966,29.2912112 L57.8576379,29.2912112 L57.8576379,2.04427371 L56.4568966,2.04427371 L56.4568966,29.2912112 Z M53.1488276,29.2912112 L54.549569,29.2912112 L54.549569,2.04427371 L53.1488276,2.04427371 L53.1488276,29.2912112 Z M1.90732759,20.6521616 L5.53125,20.6521616 L5.53125,15.6294052 L1.90732759,15.6294052 L1.90732759,20.6521616 Z M6.48491379,13.7220776 L7.72467672,13.7220776 L7.72467672,2.04427371 L1.90732759,2.04427371 L1.90732759,13.7220776 L6.48491379,13.7220776 Z M17.2613147,5.45724569 C16.560181,5.45724569 15.9898901,6.0279181 15.9898901,6.72867026 L15.9898901,9.20819612 C15.9898901,9.90932974 16.560181,10.4796207 17.2613147,10.4796207 C17.9624483,10.4796207 18.5327392,9.90932974 18.5327392,9.20819612 L18.5327392,6.72867026 C18.5327392,6.0279181 17.9624483,5.45724569 17.2613147,5.45724569 Z M29.7543103,4.18543966 L43.7918599,4.18543966 L43.7918599,2.04427371 L29.7543103,2.04427371 L29.7543103,4.18543966 Z M17.2613147,3.5499181 L19.5184461,3.5499181 L19.5184461,2.04427371 L15.0041832,2.04427371 L15.0041832,3.5499181 L17.2613147,3.5499181 Z M38.1297672,53.8713233 L30.4832909,53.8713233 C29.9564871,53.8713233 29.5296272,53.4444634 29.5296272,52.9176595 L29.5296272,35.4419612 C29.5296272,34.9151573 29.9564871,34.4882974 30.4832909,34.4882974 L38.1297672,34.4882974 C38.6565711,34.4882974 39.083431,34.9151573 39.083431,35.4419612 L39.083431,52.9180409 C39.083431,53.4444634 38.6561897,53.8713233 38.1297672,53.8713233 Z M31.4369547,51.9639957 L37.1761034,51.9639957 L37.1761034,51.0103319 L33.7913599,51.0103319 C33.264556,51.0103319 32.8376961,50.583472 32.8376961,50.0566681 L32.8376961,38.3029526 C32.8376961,37.7761487 33.264556,37.3492888 33.7913599,37.3492888 L37.1761034,37.3492888 L37.1761034,36.395625 L31.4369547,36.395625 L31.4369547,51.9639957 Z M34.7450237,49.1030043 L37.1761034,49.1030043 L37.1761034,39.2566164 L34.7450237,39.2566164 L34.7450237,49.1030043 Z M58.8113017,53.299125 C58.2844978,53.299125 57.8576379,52.8722651 57.8576379,52.3454612 L57.8576379,35.942444 C57.8576379,35.4156401 58.2844978,34.9887802 58.8113017,34.9887802 C59.3381056,34.9887802 59.7649655,35.4156401 59.7649655,35.942444 L59.7649655,38.9010905 C60.2608707,38.9346595 60.6530172,39.3477866 60.6530172,39.8524655 L60.6530172,48.4354397 C60.6530172,48.9401185 60.2612522,49.3532457 59.7649655,49.3868147 L59.7649655,52.3454612 C59.7649655,52.8722651 59.3381056,53.299125 58.8113017,53.299125 Z M49.6176013,52.1547284 C46.584569,52.1547284 44.2088017,48.8874763 44.2088017,44.7161509 C44.2088017,40.5448254 46.584569,37.2775733 49.6176013,37.2775733 C52.6506336,37.2775733 55.0264009,40.5448254 55.0264009,44.7161509 C55.0264009,48.8874763 52.6506336,52.1547284 49.6176013,52.1547284 Z M49.6176013,39.1849009 C47.7194289,39.1849009 46.1161293,41.7178319 46.1161293,44.7161509 C46.1161293,47.7144698 47.7198103,50.2474009 49.6176013,50.2474009 C51.5153922,50.2474009 53.1190733,47.7144698 53.1190733,44.7161509 C53.1190733,41.7178319 51.5153922,39.1849009 49.6176013,39.1849009 Z" id="Shape"></path>
            </g>
        </g>
    </g>
</svg>