<?xml version="1.0" encoding="UTF-8" standalone="no"?>
<svg width="59px" height="59px" viewBox="0 0 59 59" version="1.1" xmlns="http://www.w3.org/2000/svg" xmlns:xlink="http://www.w3.org/1999/xlink">
    <!-- Generator: Sketch 50.2 (55047) - http://www.bohemiancoding.com/sketch -->
    <title>folder4</title>
    <desc>Created with Sketch.</desc>
    <defs>
        <linearGradient x1="50%" y1="100%" x2="50%" y2="3.061617e-15%" id="linearGradient-1">
            <stop stop-color="#FFAA35" offset="0%"></stop>
            <stop stop-color="#ED9B61" offset="100%"></stop>
        </linearGradient>
    </defs>
    <g id="Welcome" stroke="none" stroke-width="1" fill="none" fill-rule="evenodd">
        <g id="Чистовое-оформление" transform="translate(-480.000000, -571.000000)" fill="url(#linearGradient-1)" fill-rule="nonzero">
            <g id="folder4" transform="translate(480.000000, 571.000000)">
                <path d="M56.5318333,26.55 L53.1,26.55 L53.1,20.3864667 C53.1,18.9055667 51.8944333,17.7 50.4135333,17.7 L49.1666667,17.7 L49.1666667,0 L9.83333333,0 L9.83333333,1.96666667 L6.88333333,1.96666667 L6.88333333,3.93333333 L3.93333333,3.93333333 L3.93333333,10.8166667 L2.68646667,10.8166667 C1.20556667,10.8166667 0,12.0222333 0,13.5031333 L0,56.4620167 L0.0059,56.4620167 C0.000983333333,57.0156333 0.173066667,57.55745 0.5192,58.0107667 C1.00103333,58.6401 1.73066667,59 2.52225,59 L46.5352667,59 C47.6729833,59 48.6740167,58.233 48.94345,57.2172167 L59,29.6465167 L59,29.4724667 C59,27.7791667 57.9616,26.55 56.5318333,26.55 Z M50.4135333,19.6666667 C50.8108,19.6666667 51.1333333,19.9892 51.1333333,20.3864667 L51.1333333,26.55 L49.1666667,26.55 L49.1666667,19.6666667 L50.4135333,19.6666667 Z M47.2,1.96666667 L47.2,17.7 L47.2,26.55 L12.5188167,26.55 C12.2897,26.55 12.0694333,26.58835 11.85605,26.6463667 C11.83835,26.6512833 11.8177,26.6493167 11.8,26.6542333 L11.8,1.96666667 L47.2,1.96666667 Z M9.83333333,3.93333333 L9.83333333,29.0919167 L9.77138333,29.2620333 L8.85,31.7872333 L8.85,3.93333333 L9.83333333,3.93333333 Z M5.9,5.9 L6.88333333,5.9 L6.88333333,37.1798333 L5.9,39.87515 L5.9,10.8166667 L5.9,5.9 Z M1.96666667,13.5031333 C1.96666667,13.1058667 2.29018333,12.7833333 2.68646667,12.7833333 L3.93333333,12.7833333 L3.93333333,45.1772833 L1.96666667,50.5413667 L1.96666667,13.5031333 Z M47.0702,56.6242667 C47.0062833,56.8651833 46.7860167,57.0333333 46.5352667,57.0333333 L2.52225,57.0333333 C2.2833,57.0333333 2.14366667,56.89665 2.08171667,56.8150333 C2.01976667,56.7344 1.92438333,56.5633 1.96076667,56.4138333 L3.93333333,51.0055 L3.93333333,51.0064833 L6.88333333,42.9185667 L9.83333333,34.83065 L9.83333333,34.8336 L11.7331333,29.62095 L11.8,29.4390333 L11.9573333,29.00735 L11.9829,28.9267167 C12.0478,28.6858 12.26905,28.5166667 12.5188167,28.5166667 L47.2,28.5166667 L49.1666667,28.5166667 L53.1,28.5166667 L56.5318333,28.5166667 C56.9045167,28.5166667 57.0008833,29.0535667 57.0244833,29.3220167 L47.0702,56.6242667 Z" id="Shape"></path>
                <path d="M17.7,16.7166667 L41.3,16.7166667 C41.8428,16.7166667 42.2833333,16.2771167 42.2833333,15.7333333 C42.2833333,15.18955 41.8428,14.75 41.3,14.75 L17.7,14.75 C17.1572,14.75 16.7166667,15.18955 16.7166667,15.7333333 C16.7166667,16.2771167 17.1572,16.7166667 17.7,16.7166667 Z" id="Shape"></path>
                <path d="M17.7,9.83333333 L27.5333333,9.83333333 C28.0761333,9.83333333 28.5166667,9.39378333 28.5166667,8.85 C28.5166667,8.30621667 28.0761333,7.86666667 27.5333333,7.86666667 L17.7,7.86666667 C17.1572,7.86666667 16.7166667,8.30621667 16.7166667,8.85 C16.7166667,9.39378333 17.1572,9.83333333 17.7,9.83333333 Z" id="Shape"></path>
                <path d="M17.7,23.6 L41.3,23.6 C41.8428,23.6 42.2833333,23.16045 42.2833333,22.6166667 C42.2833333,22.0728833 41.8428,21.6333333 41.3,21.6333333 L17.7,21.6333333 C17.1572,21.6333333 16.7166667,22.0728833 16.7166667,22.6166667 C16.7166667,23.16045 17.1572,23.6 17.7,23.6 Z" id="Shape"></path>
            </g>
        </g>
    </g>
</svg>