<?xml version="1.0" encoding="UTF-8" standalone="no"?>
<svg width="59px" height="59px" viewBox="0 0 59 59" version="1.1" xmlns="http://www.w3.org/2000/svg" xmlns:xlink="http://www.w3.org/1999/xlink">
    <!-- Generator: Sketch 50.2 (55047) - http://www.bohemiancoding.com/sketch -->
    <title>3d2</title>
    <desc>Created with Sketch.</desc>
    <defs>
        <linearGradient x1="50%" y1="100%" x2="50%" y2="3.061617e-15%" id="linearGradient-1">
            <stop stop-color="#FFAA35" offset="0%"></stop>
            <stop stop-color="#ED9B61" offset="100%"></stop>
        </linearGradient>
    </defs>
    <g id="Welcome" stroke="none" stroke-width="1" fill="none" fill-rule="evenodd">
        <g id="Чистовое-оформление" transform="translate(-1178.000000, -457.000000)" fill="url(#linearGradient-1)" fill-rule="nonzero">
            <g id="3d2" transform="translate(1178.000000, 457.000000)">
                <path d="M58.199734,14.8820596 L30.0805851,0.153023404 C29.6882979,-0.0509659574 29.2279723,-0.0509659574 28.8356851,0.153023404 L0.71653617,14.8820596 C0.277174468,15.1135404 0,15.5698489 0,16.0680851 L0,42.8481851 C0,43.3464213 0.277174468,43.8027298 0.71653617,44.0342106 L28.8356851,58.7632468 C29.0318915,58.8653043 29.2436638,58.9162702 29.4580723,58.9162702 C29.6724809,58.9162702 29.8843787,58.8653043 30.0804596,58.7632468 L58.1996085,44.0342106 C58.6389702,43.8027298 58.9161447,43.3464213 58.9161447,42.8481851 L58.9161447,16.0680851 C58.9162702,15.5698489 58.6390957,15.1135404 58.199734,14.8820596 Z M2.67797234,16.8787702 L28.1191489,3.55205106 L28.1191489,26.6219298 L21.2431383,23.1839872 L23.0873277,22.7225319 C23.8065,22.5433979 24.2407149,21.816317 24.0628362,21.0997809 C23.8849574,20.3806085 23.1448213,19.943883 22.4387043,20.1256532 L17.082634,21.4647021 C16.3634617,21.6438362 15.9292468,22.370917 16.1071255,23.0874532 L17.4461745,28.4435234 C17.597817,29.0528553 18.1445085,29.4581979 18.7459319,29.4581979 C18.8531362,29.4581979 18.9629766,29.4451426 19.0701809,29.4176511 C19.7893532,29.238517 20.2235681,28.5114362 20.0456894,27.7949 L19.4126319,25.2631723 L26.4635085,28.7887362 L2.67784681,40.6816298 L2.67784681,16.8787702 L2.67797234,16.8787702 Z M29.4581979,56.0656915 L4.27837872,42.8758021 L28.1191489,30.955417 L28.1191489,38.2768149 L26.3878128,36.5454787 C25.8647213,36.0223872 25.0173809,36.0223872 24.4944149,36.5454787 C23.9713234,37.0685702 23.9713234,37.9159106 24.4944149,38.4388766 L28.5114362,42.4558979 C28.7729191,42.7173809 29.1156213,42.8481851 29.4581979,42.8481851 C29.8007745,42.8481851 30.1433511,42.7173809 30.4049596,42.4558979 L34.4219809,38.4388766 C34.9450723,37.9157851 34.9450723,37.0684447 34.4219809,36.5454787 C33.8988894,36.0223872 33.0515489,36.0223872 32.528583,36.5454787 L30.7972468,38.2768149 L30.7972468,30.955417 L54.638017,42.8759277 L29.4581979,56.0656915 Z M56.2382979,40.6815043 L32.4526362,28.7886106 L39.5035128,25.2630468 L38.8704553,27.7947745 C38.6925766,28.5113106 39.1267915,29.2383915 39.8459638,29.4175255 C39.9558043,29.445017 40.0630085,29.4580723 40.1702128,29.4580723 C40.7717617,29.4580723 41.3183277,29.0527298 41.4699702,28.4433979 L42.8090191,23.0873277 C42.9868979,22.3707915 42.552683,21.6437106 41.8335106,21.4645766 L36.4774404,20.1255277 C35.7477234,19.9463936 35.0311872,20.3818638 34.8533085,21.0996553 C34.6754298,21.8161915 35.1096447,22.5432723 35.828817,22.7224064 L37.6730064,23.1838617 L30.7969957,26.6218043 L30.7969957,3.55205106 L56.2382979,16.8787702 L56.2382979,40.6815043 Z" id="Shape"></path>
            </g>
        </g>
    </g>
</svg>