<?xml version="1.0" encoding="UTF-8" standalone="no"?>
<svg width="47px" height="59px" viewBox="0 0 47 59" version="1.1" xmlns="http://www.w3.org/2000/svg" xmlns:xlink="http://www.w3.org/1999/xlink">
    <!-- Generator: Sketch 50.2 (55047) - http://www.bohemiancoding.com/sketch -->
    <title>doc3</title>
    <desc>Created with Sketch.</desc>
    <defs>
        <linearGradient x1="50%" y1="100%" x2="50%" y2="3.061617e-15%" id="linearGradient-1">
            <stop stop-color="#FFAA35" offset="0%"></stop>
            <stop stop-color="#ED9B61" offset="100%"></stop>
        </linearGradient>
    </defs>
    <g id="Welcome" stroke="none" stroke-width="1" fill="none" fill-rule="evenodd">
        <g id="Чистовое-оформление" transform="translate(-808.000000, -457.000000)" fill="url(#linearGradient-1)" fill-rule="nonzero">
            <g id="doc3" transform="translate(808.000000, 457.000000)">
                <path d="M38.0680147,24.5833333 L13.6654412,24.5833333 C13.1266324,24.5833333 12.6893382,25.0228833 12.6893382,25.5666667 C12.6893382,26.11045 13.1266324,26.55 13.6654412,26.55 L38.0680147,26.55 C38.6068235,26.55 39.0441176,26.11045 39.0441176,25.5666667 C39.0441176,25.0228833 38.6068235,24.5833333 38.0680147,24.5833333 Z" id="Shape"></path>
                <path d="M13.6654412,18.6833333 L23.4264706,18.6833333 C23.9652794,18.6833333 24.4025735,18.2437833 24.4025735,17.7 C24.4025735,17.1562167 23.9652794,16.7166667 23.4264706,16.7166667 L13.6654412,16.7166667 C13.1266324,16.7166667 12.6893382,17.1562167 12.6893382,17.7 C12.6893382,18.2437833 13.1266324,18.6833333 13.6654412,18.6833333 Z" id="Shape"></path>
                <path d="M38.0680147,32.45 L13.6654412,32.45 C13.1266324,32.45 12.6893382,32.88955 12.6893382,33.4333333 C12.6893382,33.9771167 13.1266324,34.4166667 13.6654412,34.4166667 L38.0680147,34.4166667 C38.6068235,34.4166667 39.0441176,33.9771167 39.0441176,33.4333333 C39.0441176,32.88955 38.6068235,32.45 38.0680147,32.45 Z" id="Shape"></path>
                <path d="M38.0680147,40.3166667 L13.6654412,40.3166667 C13.1266324,40.3166667 12.6893382,40.7562167 12.6893382,41.3 C12.6893382,41.8437833 13.1266324,42.2833333 13.6654412,42.2833333 L38.0680147,42.2833333 C38.6068235,42.2833333 39.0441176,41.8437833 39.0441176,41.3 C39.0441176,40.7562167 38.6068235,40.3166667 38.0680147,40.3166667 Z" id="Shape"></path>
                <path d="M38.0680147,48.1833333 L13.6654412,48.1833333 C13.1266324,48.1833333 12.6893382,48.6228833 12.6893382,49.1666667 C12.6893382,49.71045 13.1266324,50.15 13.6654412,50.15 L38.0680147,50.15 C38.6068235,50.15 39.0441176,49.71045 39.0441176,49.1666667 C39.0441176,48.6228833 38.6068235,48.1833333 38.0680147,48.1833333 Z" id="Shape"></path>
                <path d="M41.9724265,14.3429 L41.9724265,0 L0,0 L0,54.0833333 L4.88051471,54.0833333 L4.88051471,59 L46.8529412,59 L46.8529412,19.2595667 L41.9724265,14.3429 Z M33.1875,8.27376667 L41.9724265,17.1237667 L43.5205257,18.6833333 L33.1875,18.6833333 L33.1875,8.27376667 Z M1.95220588,52.1166667 L1.95220588,1.96666667 L40.0202206,1.96666667 L40.0202206,12.3762333 L32.6155037,4.91666667 L4.88051471,4.91666667 L4.88051471,52.1166667 L1.95220588,52.1166667 Z M6.83272059,57.0333333 L6.83272059,54.0833333 L6.83272059,6.88333333 L31.2352941,6.88333333 L31.2352941,20.65 L44.9007353,20.65 L44.9007353,57.0333333 L6.83272059,57.0333333 Z" id="Shape"></path>
            </g>
        </g>
    </g>
</svg>