<?xml version="1.0" encoding="UTF-8" standalone="no"?>
<svg width="54px" height="59px" viewBox="0 0 54 59" version="1.1" xmlns="http://www.w3.org/2000/svg" xmlns:xlink="http://www.w3.org/1999/xlink">
    <!-- Generator: Sketch 50.2 (55047) - http://www.bohemiancoding.com/sketch -->
    <title>vr5_2</title>
    <desc>Created with Sketch.</desc>
    <defs>
        <linearGradient x1="50%" y1="100%" x2="50%" y2="3.061617e-15%" id="linearGradient-1">
            <stop stop-color="#FDB33A" offset="0%"></stop>
            <stop stop-color="#EFA067" offset="100%"></stop>
        </linearGradient>
        <linearGradient x1="50%" y1="100%" x2="50%" y2="3.061617e-15%" id="linearGradient-2">
            <stop stop-color="#FFAA35" offset="0%"></stop>
            <stop stop-color="#ED9B61" offset="100%"></stop>
        </linearGradient>
    </defs>
    <g id="Welcome" stroke="none" stroke-width="1" fill="none" fill-rule="evenodd">
        <g id="Чистовое-оформление" transform="translate(-480.000000, -457.000000)" fill-rule="nonzero">
            <g id="vr5_2" transform="translate(480.000000, 457.000000)">
                <path d="M41.9244584,41.6096844 C41.6068485,40.7961847 40.4222029,40.8034765 40.0817936,41.5913886 C39.9044065,42.0019832 40.0224889,42.4957043 40.3686969,42.7771677 C40.6805081,43.0307898 41.1235806,43.0716239 41.4766416,42.8805787 C41.9206365,42.6400819 42.1210866,42.0791437 41.9244584,41.6096844 Z" id="Shape" fill="url(#linearGradient-1)"></path>
                <path d="M39.5555439,44.1656615 C39.1696362,43.9109362 38.6455658,43.952446 38.3098393,44.2730599 C38.0349625,44.5355601 37.9305172,44.9422245 38.0470797,45.3043482 C38.1791839,45.7144388 38.5687794,46 39.0001266,46 C39.4231762,46 39.8089521,45.7233997 39.9467198,45.323983 C40.0929169,44.9008465 39.9303879,44.4124802 39.5555439,44.1656615 Z" id="Shape" fill="url(#linearGradient-1)"></path>
                <path d="M37.9802753,41.8051696 C37.8953542,41.396039 37.5610676,41.0710791 37.1454148,41.010355 C36.7175175,40.947655 36.2868553,41.1743497 36.0984488,41.5641171 C35.9180737,41.9374192 35.9903554,42.3941017 36.2759275,42.6942977 C36.5721641,43.0055584 37.0494341,43.0876216 37.4349367,42.901234 C37.8372918,42.7066796 38.0717795,42.245782 37.9802753,41.8051696 Z" id="Shape" fill="url(#linearGradient-1)"></path>
                <path d="M13.9245503,41.6089679 C13.5840789,40.775129 12.369933,40.8068425 12.062088,41.647316 C11.7464811,42.508755 12.6972485,43.3185766 13.4893574,42.8741898 C13.9244187,42.6303012 14.1191241,42.0725951 13.9245503,41.6089679 Z" id="Shape" fill="url(#linearGradient-1)"></path>
                <path d="M15.9244664,44.6184069 C15.7649465,44.2314743 15.3687155,43.9809822 14.9508814,44.0011322 C14.5454296,44.0207554 14.1851597,44.2929779 14.0533022,44.6758278 C13.9219716,45.0574924 14.0385489,45.495656 14.3454699,45.758923 C14.6685931,46.0360184 15.137932,46.0784255 15.5055785,45.8644141 C15.9302623,45.6170828 16.1163908,45.0722427 15.9244664,44.6184069 Z" id="Shape" fill="url(#linearGradient-1)"></path>
                <path d="M17.9242177,41.6184427 C17.7625903,41.2041215 17.3136401,40.9540523 16.8778517,41.0070454 C16.4787848,41.0555564 16.1434212,41.3486 16.0365471,41.735502 C15.7952907,42.6093598 16.7992755,43.3386073 17.5559495,42.834778 C17.9469877,42.5740311 18.1079569,42.0533284 17.9242177,41.6184427 Z" id="Shape" fill="url(#linearGradient-1)"></path>
                <path d="M33.9604337,45.717281 C33.8162739,45.1810584 33.3190744,44.8801594 32.850263,45.0452331 C29.3496565,46.2763415 25.6497496,46.2760744 22.1497272,45.0452331 C21.6816167,44.88056 21.1838331,45.1810584 21.0395565,45.717281 C20.8951631,46.25337 21.1584825,46.8216458 21.6274107,46.986586 C23.5483343,47.6621063 25.5240478,48 27.4999951,48 C29.4758255,48 31.4515391,47.6621063 33.3725794,46.986586 C33.8416245,46.8216458 34.1048271,46.25337 33.9604337,45.717281 Z" id="Shape" fill="url(#linearGradient-1)"></path>
                <path d="M30.123155,50 L24.876845,50 C24.3925277,50 24,50.4477906 24,51 C24,51.5522094 24.3925277,52 24.876845,52 L30.123155,52 C30.6074723,52 31,51.5522094 31,51 C31,50.4477906 30.6075876,50 30.123155,50 Z" id="Shape" fill="url(#linearGradient-1)"></path>
                <path d="M51.3621757,23.3977875 L51.2216903,23.3977875 L51.2216903,23.0109472 C51.2216903,19.9367366 48.8098342,17.4186448 45.7892847,17.268956 C45.2158845,15.6445033 44.4377149,14.1072828 43.4671513,12.6811477 C45.1958315,11.8937543 47.040246,11.3711685 49.3487433,11.3665591 C49.6081714,11.3660982 49.8633597,11.265499 50.0336381,11.0685642 C50.3008581,10.7593916 50.3179318,10.3204655 50.0984951,9.99677345 C50.0279086,9.89260198 48.3228336,7.4150726 44.4402358,4.94295921 C40.8985384,2.68794653 34.7716126,0 25.6957551,0 C21.1829212,0 17.5853047,0.839018207 14.9831173,2.49562111 C14.556161,2.76745794 14.4588755,3.35330721 14.7637952,3.75858493 L14.7637952,3.75870016 C15.0392656,4.12479834 15.5457462,4.21053238 15.9317945,3.96554506 C18.2469379,2.49642775 21.5258842,1.75247753 25.6957551,1.75247753 C34.3001961,1.75247753 40.0847317,4.26307905 43.4222327,6.36932473 C45.364391,7.59483752 46.727076,8.82979949 47.574457,9.71341323 C44.0651881,10.1085504 41.5212116,11.6260659 38.8503858,13.2195206 C36.02922,14.9026273 33.1120292,16.6421987 28.6751674,17.2619267 L23.4013521,17.2619267 C17.6497033,16.4987324 13.1503909,13.4873243 12.0441547,12.6905969 C11.9198263,11.8034109 11.7140256,9.1358608 13.2142166,6.68068679 C13.4474039,6.29914727 13.3513789,5.80122148 12.996957,5.52996082 L12.9967279,5.52973035 C12.5873036,5.21652454 11.9967151,5.32553584 11.7272033,5.76607513 C10.0708283,8.47395713 10.1370604,11.3452408 10.2831606,12.654183 C9.36038043,13.1675501 7.8922742,14.4306292 7.65736803,17.3242683 C4.90094472,17.7334639 2.77842428,20.1274487 2.77842428,23.0112929 L2.77842428,23.398018 L2.63770976,23.398018 C1.18094777,23.398018 0,24.5856188 0,26.0505877 L0,30.2088039 C0,31.6737728 1.18094777,32.8613736 2.63770976,32.8613736 L2.77853887,32.8613736 L2.77853887,33.3959438 C2.77853887,36.0690251 4.60221283,38.3218484 7.06391485,38.962549 C7.06952968,50.0122148 16.0101729,59 26.9993125,59 C37.9892542,59 46.9308141,50.0122148 46.9363143,38.962549 C49.3981309,38.3218484 51.2218049,36.0690251 51.2218049,33.3959438 L51.2218049,32.8613736 L51.3622902,32.8613736 C52.8190522,32.8613736 54,31.6737728 54,30.2088039 L54,26.0505877 C53.9997708,24.5853883 52.8189376,23.3977875 51.3621757,23.3977875 Z M2.77842428,31.1085504 L2.63759517,31.1085504 C2.14406305,31.1085504 1.74254539,30.7047707 1.74254539,30.2084582 L1.74254539,26.050242 C1.74254539,25.5539295 2.14406305,25.1501498 2.63759517,25.1501498 L2.77842428,25.1501498 L2.77842428,31.1085504 Z M39.7395916,14.7265499 C40.4737593,14.2885457 41.1834051,13.8654068 41.8947697,13.4753399 C42.7216394,14.6574095 43.401836,15.9252132 43.9264215,17.2616962 L35.0217591,17.2616962 C36.7921494,16.4849044 38.3136538,15.5772067 39.7395916,14.7265499 Z M16.7634769,17.2616962 L13.1777775,17.2616962 C13.113608,16.5526619 12.9977592,15.8961742 12.8632324,15.3167781 C13.8696621,15.9158792 15.1936162,16.6193823 16.7634769,17.2616962 Z M10.7898704,14.40885 C11.0185888,15.0738649 11.3029971,16.0840055 11.4264088,17.261581 L9.41446615,17.261581 C9.59551577,15.6529154 10.2634514,14.8217331 10.7898704,14.40885 Z M49.4791449,33.3957133 L49.4790303,33.3957133 C49.4790303,35.6031344 47.6995875,37.3924867 45.5046472,37.3924867 L43.687161,37.3924867 C43.2060044,37.3924867 42.815831,37.7848583 42.815831,38.2687255 C42.815831,38.7525928 43.2060044,39.1449643 43.687161,39.1449643 L45.191248,39.1449643 C45.0877747,49.1442729 36.9674696,57.247292 26.9991979,57.247292 C17.0318428,57.247292 8.91222531,49.1443881 8.80875201,39.1449643 L17.1295867,39.1449643 C18.9808765,39.1449643 20.7628403,38.4100023 22.1474116,37.0757087 C22.3991622,36.8331413 22.6662677,36.6118921 22.9459779,36.4119613 L22.9459779,38.971422 C22.9459779,40.0613044 23.3675486,41.0855036 24.1329989,41.855151 C24.9157521,42.6423139 25.9632044,43.0678728 27.074597,43.0480525 C29.2980698,43.0085273 31.0551679,41.127103 31.0551679,38.8907582 L31.0551679,36.4124222 C31.3345344,36.6121226 31.6014107,36.8332565 31.8528176,37.0755935 C33.2372743,38.4100023 35.0194673,39.1449643 36.870757,39.1449643 L39.620878,39.1449643 C40.1020346,39.1449643 40.492208,38.7525928 40.492208,38.2687255 C40.492208,37.7848583 40.1020346,37.3924867 39.620878,37.3924867 L36.870757,37.3924867 C35.4709455,37.3924867 34.1170839,36.8306061 33.0586311,35.810325 C31.4205903,34.231505 29.269079,33.3619498 27.0002292,33.3619498 C24.731494,33.3619498 22.5798681,34.2313897 20.9417127,35.810325 C19.8832599,36.8304909 18.5292837,37.3924867 17.1295867,37.3924867 L8.49558198,37.3924867 C6.30052711,37.3924867 4.52108426,35.6030191 4.52108426,33.3955981 L4.52108426,31.9938926 C4.52108426,31.9908965 4.52154261,31.9879004 4.52154261,31.9849044 C4.52154261,31.9819083 4.52108426,31.9789122 4.52108426,31.9759161 L4.52108426,24.2831298 C4.52108426,24.2801337 4.52154261,24.2771376 4.52154261,24.2741415 C4.52154261,24.2711454 4.52108426,24.2681493 4.52108426,24.2651533 L4.52108426,23.0110625 C4.52108426,20.8036414 6.30052711,19.0141738 8.49558198,19.0141738 L45.5046472,19.0141738 C47.6997021,19.0141738 49.4791449,20.8036414 49.4791449,23.0110625 L49.4791449,33.3957133 Z M24.6885233,38.9713068 L24.6885233,35.5062226 C25.4231494,35.2486748 26.2025795,35.1145425 27,35.1145425 C27.7977643,35.1145425 28.5775381,35.2490205 29.3122788,35.5065683 L29.3122788,38.9713068 C29.3122788,40.2532842 28.2751394,41.2962664 27.0004584,41.2962664 C26.3821395,41.2962664 25.8014056,41.0546209 25.3651677,40.6159253 C24.9287006,40.1771145 24.6885233,39.593109 24.6885233,38.9713068 Z M52.2572254,30.2085734 C52.2572254,30.7048859 51.8557078,31.1086656 51.3621757,31.1086656 L51.2216903,31.1086656 L51.2216903,25.150265 L51.3621757,25.150265 C51.8557078,25.150265 52.2572254,25.5540447 52.2572254,26.0503572 L52.2572254,30.2085734 Z" id="Shape" fill="url(#linearGradient-2)"></path>
                <path d="M41.3113582,22 C41.1392531,22 41.0015248,22.0543122 40.9602728,22.1968134 L40.0032713,25.6771648 L39.0395054,22.1968134 C38.9982534,22.0543122 38.8605251,22 38.6884201,22 C38.3924482,22 38,22.1831534 38,22.4341697 C38,22.4546051 38.0068753,22.4817065 38.0137507,22.508808 L39.3012115,26.647244 C39.3768401,26.8847095 39.6867844,27 40.0033822,27 C40.3200909,27 40.6298134,26.8848188 40.7056638,26.647244 L41.9862493,22.508808 C41.9931247,22.4817065 42,22.4544958 42,22.4341697 C41.9996673,22.1831534 41.60733,22 41.3113582,22 Z" id="Shape" fill="url(#linearGradient-1)"></path>
                <path d="M47.4510634,25.9626279 L46.247691,24.7632223 C46.9379422,24.6166186 47.4410552,24.269298 47.4410552,23.6614652 C47.4410552,22.7768599 46.3663602,22.5 45.0149293,22.5 L42.9734059,22.5 C42.6872972,22.5 42.5,22.619416 42.5,22.7550922 L42.5,26.20688 C42.5,26.380584 42.8844437,26.4673923 43.2692052,26.4673923 C43.6536489,26.4673923 44.0384104,26.380584 44.0384104,26.20688 L44.0384104,24.8989859 L44.6892641,24.8989859 L46.0403773,26.3426436 C46.1488794,26.4565521 46.3361766,26.5 46.5336409,26.5 C46.9871892,26.5 47.4999926,26.2720955 47.4999926,26.0604511 C47.5003103,26.033176 47.490461,25.9952356 47.4510634,25.9626279 Z M45.0150881,24.2476178 L44.0387281,24.2476178 L44.0387281,23.2381764 L45.0150881,23.2381764 C45.5676068,23.2381764 45.9028036,23.3629251 45.9028036,23.7428534 C45.9028036,24.1227817 45.5676068,24.2476178 45.0150881,24.2476178 Z" id="Shape" fill="url(#linearGradient-1)"></path>
            </g>
        </g>
    </g>
</svg>