<?xml version="1.0" encoding="UTF-8" standalone="no"?>
<svg width="25px" height="25px" viewBox="0 0 25 25" version="1.1" xmlns="http://www.w3.org/2000/svg" xmlns:xlink="http://www.w3.org/1999/xlink">
    <!-- Generator: Sketch 50.2 (55047) - http://www.bohemiancoding.com/sketch -->
    <title>no</title>
    <desc>Created with Sketch.</desc>
    <defs></defs>
    <g id="Welcome" stroke="none" stroke-width="1" fill="none" fill-rule="evenodd">
        <g id="Чистовое-оформление" transform="translate(-1153.000000, -7035.000000)" fill="#D5D5D5" fill-rule="nonzero">
            <g id="no" transform="translate(1153.000000, 7035.000000)">
                <path d="M12.5,0 C5.60749541,0 0,5.60749541 0,12.5 C0,19.3925046 5.60749541,25 12.5,25 C19.3925046,25 25,19.3925046 25,12.5 C25,5.60749541 19.3923611,0 12.5,0 Z M12.5,22.8571224 C6.78919881,22.8571224 2.14287764,18.2108012 2.14287764,12.5 C2.14287764,6.78919881 6.78919881,2.14287764 12.5,2.14287764 C18.2108012,2.14287764 22.8571224,6.78919881 22.8571224,12.5 C22.8571224,18.2108012 18.2106577,22.8571224 12.5,22.8571224 Z" id="Shape"></path>
                <path d="M17.6646645,7.33516711 C17.2177548,6.88827763 16.4930778,6.88827763 16.0469341,7.33516711 L12.5,10.8824003 L8.95306591,7.33516711 C8.5061562,6.88827763 7.7822452,6.88827763 7.33533549,7.33516711 C6.88842578,7.78205659 6.88842578,8.50593483 7.33533549,8.95282431 L10.8822696,12.4999042 L7.33518228,16.0471374 C6.88827257,16.4940269 6.88827257,17.2179051 7.33518228,17.6647946 C7.55856053,17.8881627 7.85134232,18 8.1441241,18 C8.43690588,18 8.72999408,17.8883159 8.95306591,17.6647946 L12.5,14.1177146 L16.0469341,17.6647946 C16.2703123,17.8881627 16.5630941,18 16.8558759,18 C17.1486577,18 17.4412863,17.8883159 17.6648177,17.6647946 C18.1117274,17.2179051 18.1117274,16.4940269 17.6648177,16.0471374 L14.1177304,12.5000575 L17.6646645,8.95297751 C18.1115742,8.50608803 18.1115742,7.78205659 17.6646645,7.33516711 Z" id="Shape"></path>
            </g>
        </g>
    </g>
</svg>