<?xml version="1.0" encoding="UTF-8" standalone="no"?>
<svg width="25px" height="25px" viewBox="0 0 25 25" version="1.1" xmlns="http://www.w3.org/2000/svg" xmlns:xlink="http://www.w3.org/1999/xlink">
    <!-- Generator: Sketch 50.2 (55047) - http://www.bohemiancoding.com/sketch -->
    <title>ok copy 18</title>
    <desc>Created with Sketch.</desc>
    <defs>
        <linearGradient x1="50%" y1="100%" x2="50%" y2="3.061617e-15%" id="linearGradient-1">
            <stop stop-color="#FFAA35" offset="0%"></stop>
            <stop stop-color="#ED9B61" offset="100%"></stop>
        </linearGradient>
    </defs>
    <g id="Welcome" stroke="none" stroke-width="1" fill="none" fill-rule="evenodd">
        <g id="Чистовое-оформление" transform="translate(-971.000000, -7035.000000)" fill="url(#linearGradient-1)" fill-rule="nonzero">
            <g id="ok-copy-18" transform="translate(971.000000, 7035.000000)">
                <path d="M18.7218729,8.32143231 C18.3372636,7.9088528 17.696053,7.89068143 17.2898731,8.28295468 L10.8230592,14.5222391 L7.73857182,11.3003954 C7.34791108,10.8926318 6.70738363,10.883695 6.30623044,11.2811814 C5.90541886,11.6782705 5.8969761,12.3306029 6.28729523,12.7383665 L10.0690669,16.6884553 C10.2672522,16.8955891 10.5306371,17 10.7947052,17 C11.0452551,17 11.2958051,16.9058663 11.4919895,16.7173011 L18.6841001,9.77831955 C19.0899383,9.38669174 19.1071166,8.73435936 18.7218729,8.32143231 Z" id="Shape"></path>
                <path d="M12.5,0 C5.60742187,0 0,5.60742187 0,12.5 C0,19.3925781 5.60742187,25 12.5,25 C19.3925781,25 25,19.3925781 25,12.5 C25,5.60742187 19.3925781,0 12.5,0 Z M12.5,22.972998 C6.7253418,22.972998 2.02700195,18.2750488 2.02700195,12.5 C2.02700195,6.7253418 6.72529297,2.02700195 12.5,2.02700195 C18.275,2.02700195 22.972998,6.72529297 22.972998,12.5 C22.972998,18.275 18.275,22.972998 12.5,22.972998 Z" id="Shape"></path>
            </g>
        </g>
    </g>
</svg>